Coordinates
version=1
nRows=8
nColumns=42
inDegrees=yes

Units are S.I. units (second, meters, Newtons, ...)
If the header above contains a line with 'inDegrees', this indicates whether rotational values are in degrees (yes) or radians (no).

endheader
time	pelvis_tilt	pelvis_list	pelvis_rotation	pelvis_tx	pelvis_ty	pelvis_tz	hip_flexion_r	hip_adduction_r	hip_rotation_r	knee_angle_r	knee_adduction_r	knee_angle_r_beta	ankle_angle_r	subtalar_angle_r	mtp_angle_r	hip_flexion_l	hip_adduction_l	hip_rotation_l	knee_angle_l	knee_adduction_l	knee_angle_l_beta	ankle_angle_l	subtalar_angle_l	mtp_angle_l	lumbar_extension	lumbar_bending	lumbar_rotation	arm_flex_r	arm_add_r	arm_rot_r	elbow_flex_r	pro_sup_r	wrist_flex_r	wrist_dev_r	arm_flex_l	arm_add_l	arm_rot_l	elbow_flex_l	pro_sup_l	wrist_flex_l	wrist_dev_l
      2.83000000	      2.70126061	      6.37677148	      5.73203876	      0.08251372	      0.99591059	      0.31319286	     10.39718963	     -6.20212270	    -27.78107944	     12.04058275	     -2.97575037	      0.21014781	      1.65853784	     16.92657115	     -7.51439379	    -14.28744340	      2.06555369	     -2.27505612	     22.89174748	      1.50268746	      0.39953637	      1.73045729	      8.28942806	     -7.51439379	    -21.91067209	     -7.04491652	     -8.81885309	     -8.89578177	    -11.14419767	     21.23672851	     37.85447001	     90.00000001	      0.00000000	      0.00000000	     14.63727854	    -21.55216406	     13.04672142	     48.45418834	     90.00000001	      0.00000000	      0.00000000
      2.84000000	      2.78269582	      6.30824865	      5.82756020	      0.08965035	      0.99715943	      0.31481945	      9.54607394	     -5.89584743	    -28.27508355	     11.43289402	     -2.95285353	      0.19954164	      1.76763639	     17.61382326	     -7.51396735	    -13.15215445	      1.36629746	     -1.98805405	     25.76705206	      2.18099754	      0.44971990	      0.67488064	      6.91051192	     -7.51396735	    -22.01635877	     -6.99952121	     -8.68332796	     -8.36524321	    -11.21838801	     21.34536688	     37.99916169	     90.00000001	      0.00000000	      0.00000000	     14.09958925	    -21.59366012	     13.05161171	     48.36371363	     90.00000001	      0.00000000	      0.00000000
      2.85000000	      2.96570141	      6.49225637	      5.86760133	      0.09656468	      0.99854555	      0.31606631	      8.56289717	     -5.97494997	    -28.43612926	     10.92450413	     -2.66739535	      0.19066857	      2.15581486	     17.96700703	     -7.51370636	    -12.13991543	      1.04204191	     -1.71818848	     28.46522844	      2.69516124	      0.49681196	     -0.41580737	      6.11421603	     -7.51370636	    -22.28506173	     -7.18560462	     -8.58801605	     -7.77571968	    -11.33986362	     21.34486526	     38.26026915	     90.00000001	      0.00000000	      0.00000000	     13.61090019	    -21.62051099	     12.99517097	     48.26838010	     90.00000001	      0.00000000	      0.00000000
      2.86000000	      3.12340324	      6.57155175	      5.87405878	      0.10340674	      0.99968736	      0.31749658	      7.66586953	     -5.89844040	    -28.55718515	     10.44828752	     -2.46098753	      0.18235702	      2.41574475	     18.32302432	     -7.51345324	    -10.99515106	      0.56120156	     -1.43793638	     31.24010589	      3.29157330	      0.54524271	     -1.29085309	      5.20267643	     -7.51345324	    -22.48999196	     -7.29269890	     -8.41408596	     -7.17911940	    -11.47975197	     21.40048545	     38.52509127	     90.00000001	      0.00000000	      0.00000000	     13.07166073	    -21.65794967	     12.84110910	     48.21926438	     90.00000001	      0.00000000	      0.00000000
      2.87000000	      3.21782385	      6.54924734	      5.82496971	      0.11001313	      1.00058016	      0.31917133	      6.93227004	     -5.64027226	    -28.69088536	      9.99783302	     -2.42572499	      0.17449510	      2.55909768	     18.68017012	     -7.51314151	     -9.68507416	     -0.05762766	     -1.12711825	     34.02094332	      3.99980104	      0.59377748	     -1.93785986	      4.13149601	     -7.51314151	    -22.62226943	     -7.34749163	     -8.13369946	     -6.52825661	    -11.65610578	     21.56510621	     38.79088952	     90.00000001	      0.00000000	      0.00000000	     12.50380812	    -21.67489690	     12.51749455	     48.21183706	     90.00000001	      0.00000000	      0.00000000
      2.88000000	      3.29160814	      6.51059328	      5.72676839	      0.11648131	      1.00131078	      0.32085532	      6.26596617	     -5.37917173	    -28.74842192	      9.60956298	     -2.36712795	      0.16771851	      2.70205644	     19.01300105	     -7.51275072	     -8.31097427	     -0.68649031	     -0.77922968	     36.70153958	      4.73747030	      0.64056271	     -2.42092010	      3.01775410	     -7.51275072	    -22.72161747	     -7.40385764	     -7.80255123	     -5.82429558	    -11.86110560	     21.81026361	     39.04984728	     90.00000001	      0.00000000	      0.00000000	     11.91821116	    -21.64917130	     12.05019410	     48.21881952	     90.00000001	      0.00000000	      0.00000000
      2.89000000	      3.37978676	      6.50145408	      5.61044074	      0.12283412	      1.00196596	      0.32239293	      5.60410832	     -5.15740569	    -28.74874707	      9.23864913	     -2.32495924	      0.16124485	      2.87785067	     19.26774003	     -7.51233643	     -6.92975268	     -1.24809309	     -0.48651398	     39.20468141	      5.40424924	      0.68425077	     -2.76087805	      1.96703825	     -7.51233643	    -22.84451314	     -7.47908264	     -7.45997289	     -5.09585976	    -12.12431003	     22.03175962	     39.28020497	     90.00000001	      0.00000000	      0.00000000	     11.31657391	    -21.61434409	     11.53711643	     48.23401289	     90.00000001	      0.00000000	      0.00000000
      2.90000000	      3.64297359	      6.70502186	      5.45256234	      0.12919875	      1.00294466	      0.32378549	      4.67729157	     -5.29320261	    -28.60594954	      8.92900533	     -1.95340277	      0.15584054	      3.26372491	     19.45449776	     -7.51215513	     -5.82625568	     -1.43727221	     -0.36769336	     41.27216803	      5.66553390	      0.72033522	     -2.89845354	      1.39995533	     -7.51215513	    -23.19716275	     -7.77557510	     -7.10119088	     -4.35206266	    -12.26894656	     22.03272535	     39.51912411	     90.00000001	      0.00000000	      0.00000000	     10.83066965	    -21.64902671	     11.28099730	     48.18896367	     90.00000001	      0.00000000	      0.00000000
